<svg xmlns="http://www.w3.org/2000/svg" viewBox="0 0 46 62.67"><defs><style>.cls-1{fill:#fea31e;}</style></defs><title>Fichier 1</title><g id="Calque_2" data-name="Calque 2"><g id="Calque_1-2" data-name="Calque 1"><g id="Calque_1-2-2" data-name="Calque 1-2"><path class="cls-1" d="M23,0C17.09,0,11.51,3,7.24,8.48,2.64,14.38,0,22.71,0,31.34,0,48.61,10.3,62.67,23,62.67S46,48.61,46,31.34,35.6,0,23,0M2.69,41.91H43.21A34.81,34.81,0,0,1,41,48H5a35.53,35.53,0,0,1-2.26-6.08m18.65-2.55L1.69,25.8A35.18,35.18,0,0,1,7.63,10.14ZM44.22,25.8,24.56,39.36,38.27,10.14a34.91,34.91,0,0,1,6,15.65M37.38,9,23.6,38.35v-37C28.88,1.57,33.7,4.42,37.38,9M22.3,1.32v37L8.52,9c3.82-4.74,8.67-7.44,13.78-7.65M1.51,27.26,20.86,40.61H2.36A40.75,40.75,0,0,1,1.3,31.34c0-1.38.08-2.74.21-4.08m9.85,29.42H34.54a16.67,16.67,0,0,1-23.18,0m24.55-1.3H10A27.89,27.89,0,0,1,5.61,49.3H40.29a27.89,27.89,0,0,1-4.38,6.08m7.62-14.77H25L44.39,27.26c.13,1.33.21,2.69.21,4.08a40.76,40.76,0,0,1-1.07,9.27"/></g></g></g></svg>