<?xml version="1.0" encoding="utf-8"?>
<!-- Generator: Adobe Illustrator 22.0.1, SVG Export Plug-In . SVG Version: 6.00 Build 0)  -->
<svg version="1.1" id="Calque_1" xmlns="http://www.w3.org/2000/svg" xmlns:xlink="http://www.w3.org/1999/xlink" x="0px" y="0px"
	 viewBox="0 0 283.5 170.1" style="enable-background:new 0 0 283.5 170.1;" xml:space="preserve">
<style type="text/css">
	.st0{fill:#F8B472;}
</style>
<g>
	<defs>
		<rect id="SVGID_1_" width="283.5" height="170.1"/>
	</defs>
	<clipPath id="SVGID_2_">
		<use xlink:href="#SVGID_1_"  style="overflow:visible;"/>
	</clipPath>
</g>
<path class="st0" d="M154,65.8h-11l11.6-8c0.1,0.8,0.1,1.6,0.1,2.4C154.7,62.2,154.4,64.1,154,65.8 M149.5,74.6H134
	c-1-1-1.9-2.3-2.6-3.6h20.7C151.3,72.4,150.5,73.6,149.5,74.6 M134.8,75.4h13.8c-2,1.8-4.4,2.8-6.9,2.8
	C139.2,78.2,136.8,77.2,134.8,75.4 M128.9,57.8l11.6,8h-11c-0.4-1.7-0.6-3.6-0.6-5.5C128.8,59.5,128.9,58.6,128.9,57.8 M141.3,42.4
	v22.1l-8.2-17.5C135.4,44.1,138.3,42.5,141.3,42.4 M150.3,46.9l-8.2,17.5V42.4C145.3,42.5,148.2,44.2,150.3,46.9 M154.4,57
	l-11.7,8.1l8.2-17.4C152.7,50.1,153.9,53.4,154.4,57 M140.8,65.1L129,57c0.5-3.5,1.7-6.8,3.5-9.3L140.8,65.1z M129.6,66.6h24.2
	c-0.3,1.3-0.8,2.5-1.3,3.6H131C130.4,69.1,130,67.9,129.6,66.6 M141.7,41.6c-3.5,0-6.8,1.8-9.4,5.1c-2.7,3.5-4.3,8.5-4.3,13.6
	c0,10.3,6.1,18.7,13.7,18.7c7.6,0,13.7-8.4,13.7-18.7S149.3,41.6,141.7,41.6"/>
<polygon class="st0" points="54.9,92.7 54.9,98.7 64.4,98.7 64.4,101.7 54.9,101.7 54.9,109.3 51.2,109.3 51.2,89.6 65.6,89.6 
	65.6,92.7 "/>
<path class="st0" d="M82.7,104.7h-9.8l-1.9,4.5h-3.8L76,89.6h3.6l8.9,19.7h-3.8L82.7,104.7z M81.5,101.9l-3.7-8.6l-3.7,8.6H81.5z"/>
<path class="st0" d="M91,99.4c0-5.9,4.5-10.1,10.5-10.1c3.2,0,6,1.2,7.8,3.3l-2.4,2.2c-1.4-1.5-3.2-2.3-5.3-2.3c-4.1,0-7,2.9-7,6.9
	c0,4,2.9,6.9,7,6.9c2.1,0,3.8-0.8,5.3-2.3l2.4,2.2c-1.8,2.1-4.6,3.3-7.8,3.3C95.5,109.6,91,105.3,91,99.4"/>
<rect x="114.5" y="89.6" class="st0" width="3.7" height="19.7"/>
<path class="st0" d="M123.7,99.4c0-5.8,4.5-10.1,10.6-10.1s10.6,4.3,10.6,10.1c0,5.8-4.5,10.1-10.6,10.1S123.7,105.3,123.7,99.4
	 M141.2,99.4c0-4-2.9-6.9-6.9-6.9c-4,0-6.9,2.9-6.9,6.9c0,4,2.9,6.9,6.9,6.9C138.3,106.3,141.2,103.5,141.2,99.4"/>
<polygon class="st0" points="150.5,89.6 154.1,89.6 154.1,106.2 164.4,106.2 164.4,109.3 150.5,109.3 "/>
<path class="st0" d="M167.2,99.4c0-5.8,4.5-10.1,10.6-10.1s10.6,4.3,10.6,10.1c0,5.8-4.5,10.1-10.6,10.1S167.2,105.3,167.2,99.4
	 M184.7,99.4c0-4-2.9-6.9-6.9-6.9c-4,0-6.9,2.9-6.9,6.9c0,4,2.9,6.9,6.9,6.9C181.8,106.3,184.7,103.5,184.7,99.4"/>
<path class="st0" d="M207.4,99.2h3.5v7.8c-2.1,1.7-4.9,2.5-7.7,2.5c-6.1,0-10.6-4.2-10.6-10.1c0-5.9,4.5-10.1,10.6-10.1
	c3.3,0,6,1.1,7.9,3.2l-2.3,2.2c-1.5-1.5-3.3-2.2-5.4-2.2c-4.2,0-7.1,2.8-7.1,6.9c0,4,2.9,6.9,7.1,6.9c1.4,0,2.8-0.3,4-1V99.2z"/>
<polygon class="st0" points="224.6,102.3 224.6,109.3 220.9,109.3 220.9,102.4 213.2,89.6 217.1,89.6 222.8,99.2 228.7,89.6 
	232.2,89.6 "/>
<path class="st0" d="M75.1,120.9c1.4,0,2.5,1.2,2.5,2.6c0,1.4-1.1,2.6-2.5,2.6c-1.4,0-2.5-1.2-2.5-2.6
	C72.5,122,73.6,120.9,75.1,120.9 M75.1,125.5c1.1,0,1.9-0.9,1.9-2c0-1.1-0.8-2-1.9-2c-1.1,0-1.9,0.9-1.9,2
	C73.1,124.6,74,125.5,75.1,125.5"/>
<path class="st0" d="M81.6,125.6c0.7,0,1.2-0.4,1.2-0.9c0-1.2-2.9-0.8-2.9-2.4c0-0.8,0.7-1.3,1.7-1.3c0.6,0,1.2,0.3,1.6,0.5
	c0.1,0.1,0.1,0.1,0,0.2l-0.2,0.2c0,0-0.1,0-0.1,0c0,0-0.1,0-0.1,0c-0.4-0.3-0.8-0.4-1.2-0.4c-0.6,0-1.1,0.3-1.1,0.8
	c0,1.1,2.9,0.6,2.9,2.4c0,0.8-0.8,1.5-1.8,1.5c-0.7,0-1.3-0.3-1.8-0.7c0-0.1,0-0.1,0-0.2L80,125c0,0,0.1-0.1,0.1-0.1
	c0,0,0.1,0,0.1,0C80.6,125.3,81.1,125.6,81.6,125.6"/>
<path class="st0" d="M88.6,125.7c0,0.1,0,0.1-0.1,0.2c-0.3,0.2-0.6,0.2-1,0.2c-0.8,0-1.2-0.4-1.2-1.2v-3.4h-0.6
	c-0.1,0-0.1,0-0.1-0.1v-0.4c0-0.1,0-0.1,0.1-0.1h0.6v-1.4c0-0.1,0-0.1,0.1-0.1h0.4c0.1,0,0.1,0,0.1,0.1v1.4h1.3c0.1,0,0.1,0,0.1,0.1
	v0.4c0,0.1,0,0.1-0.1,0.1H87v3.3c0,0.4,0.3,0.6,0.7,0.6c0.3,0,0.4-0.1,0.7-0.2c0,0,0,0,0.1,0c0,0,0,0,0.1,0L88.6,125.7z"/>
<path class="st0" d="M94.7,125.1C94.7,125.1,94.8,125.1,94.7,125.1c0.1,0,0.2,0,0.2,0l0.2,0.3c0,0.1,0,0.1,0,0.2
	c-0.5,0.3-1.1,0.5-1.8,0.5c-1.4,0-2.5-1.2-2.5-2.6c0-1.4,0.9-2.6,2.4-2.6c1.6,0,2.4,1.3,2.4,2.7c0,0.1,0,0.2-0.2,0.2h-4.1
	c0.1,1,0.9,1.8,2,1.8C93.8,125.5,94.3,125.4,94.7,125.1 M94.9,123.2c-0.1-1-0.7-1.8-1.8-1.8c-1,0-1.7,0.8-1.8,1.8H94.9z M92.9,120.3
	c-0.1,0-0.1-0.1,0-0.1l0.8-1.6c0,0,0.1-0.1,0.1-0.1c0,0,0,0,0.1,0l0.3,0.1c0.1,0,0.1,0.1,0,0.1l-0.9,1.6c0,0.1-0.1,0.1-0.1,0.1
	c0,0,0,0-0.1,0L92.9,120.3z"/>
<path class="st0" d="M100.3,120.9c1.4,0,2.5,1.2,2.5,2.6c0,1.4-1.1,2.6-2.5,2.6c-1.4,0-2.5-1.2-2.5-2.6
	C97.7,122,98.8,120.9,100.3,120.9 M100.3,125.5c1.1,0,1.9-0.9,1.9-2c0-1.1-0.8-2-1.9-2c-1.1,0-1.9,0.9-1.9,2
	C98.3,124.6,99.2,125.5,100.3,125.5"/>
<path class="st0" d="M106.1,121c0.1,0,0.1,0,0.1,0.1v1c0.4-0.7,1.1-1.2,2-1.2c1.4,0,2.4,1.2,2.4,2.6c0,1.4-1,2.6-2.4,2.6
	c-1,0-1.7-0.6-2-1.2v3.5c0,0.1,0,0.1-0.1,0.1h-0.4c-0.1,0-0.1,0-0.1-0.1v-7.3c0-0.1,0-0.1,0.1-0.1H106.1z M108.1,121.5
	c-1.1,0-1.9,0.9-1.9,2c0,1.1,0.8,2,1.9,2c1.1,0,1.9-0.9,1.9-2C110,122.4,109.2,121.5,108.1,121.5"/>
<path class="st0" d="M117.5,126c-0.1,0-0.1,0-0.1-0.1v-1c-0.4,0.6-1.1,1.2-2,1.2c-1.4,0-2.4-1.2-2.4-2.6c0-1.4,1-2.6,2.4-2.6
	c1,0,1.6,0.5,2,1.2v-1c0-0.1,0-0.1,0.1-0.1h0.4c0.1,0,0.1,0,0.1,0.1v4.8c0,0.1,0,0.1-0.1,0.1H117.5z M115.4,125.5
	c1.1,0,1.9-0.9,1.9-2c0-1.1-0.8-2-1.9-2c-1.1,0-1.9,0.9-1.9,2C113.5,124.6,114.3,125.5,115.4,125.5"/>
<path class="st0" d="M123.7,125.7c0,0.1,0,0.1-0.1,0.2c-0.3,0.2-0.6,0.2-1,0.2c-0.8,0-1.2-0.4-1.2-1.2v-3.4h-0.6
	c-0.1,0-0.1,0-0.1-0.1v-0.4c0-0.1,0-0.1,0.1-0.1h0.6v-1.4c0-0.1,0-0.1,0.1-0.1h0.4c0.1,0,0.1,0,0.1,0.1v1.4h1.3c0.1,0,0.1,0,0.1,0.1
	v0.4c0,0.1,0,0.1-0.1,0.1h-1.3v3.3c0,0.4,0.3,0.6,0.7,0.6c0.3,0,0.4-0.1,0.7-0.2c0,0,0,0,0.1,0c0,0,0,0,0.1,0L123.7,125.7z"/>
<path class="st0" d="M126.7,126c-0.1,0-0.1,0-0.1-0.1v-7.3c0-0.1,0-0.1,0.1-0.1h0.4c0.1,0,0.1,0,0.1,0.1v3.5
	c0.2-0.5,0.9-1.2,1.8-1.2c1.4,0,2,1,2,2.4v2.6c0,0.1,0,0.1-0.1,0.1h-0.4c-0.1,0-0.1,0-0.1-0.1v-2.5c0-1.1-0.4-1.9-1.5-1.9
	c-1,0-1.7,1-1.7,2v2.4c0,0.1,0,0.1-0.1,0.1H126.7z"/>
<path class="st0" d="M137.6,125.1C137.7,125.1,137.7,125.1,137.6,125.1c0.1,0,0.1,0,0.2,0l0.2,0.3c0,0.1,0,0.1,0,0.2
	c-0.5,0.3-1.1,0.5-1.8,0.5c-1.4,0-2.5-1.2-2.5-2.6c0-1.4,0.9-2.6,2.4-2.6c1.6,0,2.4,1.3,2.4,2.7c0,0.1,0,0.2-0.2,0.2h-4.1
	c0.1,1,0.9,1.8,2,1.8C136.8,125.5,137.2,125.4,137.6,125.1 M137.8,123.2c-0.1-1-0.7-1.8-1.8-1.8c-1,0-1.7,0.8-1.8,1.8H137.8z"/>
<path class="st0" d="M142.4,125.6c0.7,0,1.2-0.4,1.2-0.9c0-1.2-2.9-0.8-2.9-2.4c0-0.8,0.7-1.3,1.7-1.3c0.6,0,1.2,0.3,1.6,0.5
	c0.1,0.1,0.1,0.1,0,0.2l-0.2,0.2c0,0-0.1,0-0.1,0s-0.1,0-0.1,0c-0.4-0.3-0.8-0.4-1.2-0.4c-0.6,0-1.1,0.3-1.1,0.8
	c0,1.1,2.9,0.6,2.9,2.4c0,0.8-0.8,1.5-1.8,1.5c-0.7,0-1.3-0.3-1.8-0.7c0-0.1,0-0.1,0-0.2l0.2-0.2c0,0,0.1-0.1,0.1-0.1
	c0,0,0.1,0,0.1,0C141.4,125.3,141.9,125.6,142.4,125.6"/>
<path class="st0" d="M153.4,119.1C153.4,119.1,153.4,119.2,153.4,119.1c-0.1,0.1-0.1,0-0.1,0c-0.2-0.1-0.4-0.2-0.6-0.2
	c-0.4,0-0.8,0.2-0.8,1v1h1.1c0.1,0,0.1,0,0.1,0.1v0.4c0,0.1,0,0.1-0.1,0.1h-1.1v4.3c0,0.1,0,0.1-0.1,0.1h-0.4c-0.1,0-0.1,0-0.1-0.1
	v-4.3h-0.7c-0.1,0-0.1,0-0.1-0.1v-0.4c0-0.1,0-0.1,0.1-0.1h0.7v-1.2c0-1,0.5-1.4,1.3-1.4c0.3,0,0.7,0.1,1,0.3c0.1,0.1,0.1,0.1,0,0.1
	L153.4,119.1z"/>
<path class="st0" d="M159.7,126c-0.1,0-0.1,0-0.1-0.1v-1c-0.4,0.6-1.1,1.2-2,1.2c-1.4,0-2.4-1.2-2.4-2.6c0-1.4,1-2.6,2.4-2.6
	c1,0,1.6,0.5,2,1.2v-1c0-0.1,0-0.1,0.1-0.1h0.4c0.1,0,0.1,0,0.1,0.1v4.8c0,0.1,0,0.1-0.1,0.1H159.7z M157.7,125.5
	c1.1,0,1.9-0.9,1.9-2c0-1.1-0.8-2-1.9-2c-1.1,0-1.9,0.9-1.9,2C155.7,124.6,156.6,125.5,157.7,125.5"/>
<path class="st0" d="M167,125.5c0,0.1,0,0.1,0,0.2c-0.4,0.2-0.8,0.4-1.4,0.4c-1.4,0-2.5-1.2-2.5-2.6c0-1.4,1.1-2.6,2.5-2.6
	c0.6,0,1.1,0.2,1.4,0.4c0.1,0.1,0.1,0.1,0.1,0.2l-0.2,0.3c0,0-0.1,0.1-0.1,0.1c0,0-0.1,0-0.1,0c-0.5-0.3-0.9-0.3-1.1-0.3
	c-1.1,0-1.9,0.9-1.9,2c0,1.1,0.8,2,1.9,2c0.4,0,0.8-0.1,1.1-0.3c0,0,0.1,0,0.1,0s0.1,0,0.1,0.1L167,125.5z"/>
<path class="st0" d="M170.3,118.4c0.3,0,0.4,0.2,0.4,0.4c0,0.3-0.2,0.4-0.4,0.4c-0.3,0-0.4-0.2-0.4-0.4
	C169.9,118.6,170.1,118.4,170.3,118.4 M170.1,126c-0.1,0-0.1,0-0.1-0.1v-4.8c0-0.1,0-0.1,0.1-0.1h0.4c0.1,0,0.1,0,0.1,0.1v4.8
	c0,0.1,0,0.1-0.1,0.1H170.1z"/>
<path class="st0" d="M178.1,126c-0.1,0-0.1,0-0.1-0.1v-1c-0.4,0.6-1.1,1.2-2,1.2c-1.4,0-2.4-1.2-2.4-2.6c0-1.4,1-2.6,2.4-2.6
	c1,0,1.6,0.5,2,1.2v-1c0-0.1,0-0.1,0.1-0.1h0.4c0.1,0,0.1,0,0.1,0.1v4.8c0,0.1,0,0.1-0.1,0.1H178.1z M176.1,125.5
	c1.1,0,1.9-0.9,1.9-2c0-1.1-0.8-2-1.9-2c-1.1,0-1.9,0.9-1.9,2C174.1,124.6,174.9,125.5,176.1,125.5"/>
<path class="st0" d="M182,126c-0.1,0-0.1,0-0.1-0.1v-7.3c0-0.1,0-0.1,0.1-0.1h0.4c0.1,0,0.1,0,0.1,0.1v7.3c0,0.1,0,0.1-0.1,0.1H182z
	"/>
<path class="st0" d="M186.3,118.4c0.3,0,0.4,0.2,0.4,0.4c0,0.3-0.2,0.4-0.4,0.4c-0.3,0-0.4-0.2-0.4-0.4
	C185.8,118.6,186,118.4,186.3,118.4 M186.1,126c-0.1,0-0.1,0-0.1-0.1v-4.8c0-0.1,0-0.1,0.1-0.1h0.4c0.1,0,0.1,0,0.1,0.1v4.8
	c0,0.1,0,0.1-0.1,0.1H186.1z"/>
<path class="st0" d="M191.2,125.6c0.7,0,1.2-0.4,1.2-0.9c0-1.2-2.9-0.8-2.9-2.4c0-0.8,0.7-1.3,1.7-1.3c0.6,0,1.2,0.3,1.6,0.5
	c0.1,0.1,0.1,0.1,0,0.2l-0.2,0.2c0,0-0.1,0-0.1,0s-0.1,0-0.1,0c-0.4-0.3-0.8-0.4-1.2-0.4c-0.6,0-1.1,0.3-1.1,0.8
	c0,1.1,2.9,0.6,2.9,2.4c0,0.8-0.8,1.5-1.8,1.5c-0.7,0-1.3-0.3-1.8-0.7c0-0.1,0-0.1,0-0.2l0.2-0.2c0,0,0.1-0.1,0.1-0.1
	c0,0,0.1,0,0.1,0C190.2,125.3,190.7,125.6,191.2,125.6"/>
<path class="st0" d="M198.2,125.7c0,0.1,0,0.1-0.1,0.2c-0.3,0.2-0.6,0.2-1,0.2c-0.8,0-1.2-0.4-1.2-1.2v-3.4h-0.6
	c-0.1,0-0.1,0-0.1-0.1v-0.4c0-0.1,0-0.1,0.1-0.1h0.6v-1.4c0-0.1,0-0.1,0.1-0.1h0.4c0.1,0,0.1,0,0.1,0.1v1.4h1.3c0.1,0,0.1,0,0.1,0.1
	v0.4c0,0.1,0,0.1-0.1,0.1h-1.3v3.3c0,0.4,0.3,0.6,0.7,0.6c0.3,0,0.4-0.1,0.7-0.2c0,0,0,0,0,0c0,0,0.1,0,0.1,0L198.2,125.7z"/>
<path class="st0" d="M204.3,125.1C204.4,125.1,204.4,125.1,204.3,125.1c0.1,0,0.1,0,0.2,0l0.2,0.3c0,0.1,0,0.1,0,0.2
	c-0.5,0.3-1.1,0.5-1.8,0.5c-1.4,0-2.5-1.2-2.5-2.6c0-1.4,0.9-2.6,2.4-2.6c1.6,0,2.4,1.3,2.4,2.7c0,0.1,0,0.2-0.2,0.2h-4.1
	c0.1,1,0.9,1.8,2,1.8C203.5,125.5,203.9,125.4,204.3,125.1 M204.5,123.2c-0.1-1-0.7-1.8-1.8-1.8c-1,0-1.7,0.8-1.8,1.8H204.5z"/>
<path class="st0" d="M209.1,125.6c0.7,0,1.2-0.4,1.2-0.9c0-1.2-2.9-0.8-2.9-2.4c0-0.8,0.7-1.3,1.7-1.3c0.6,0,1.2,0.3,1.6,0.5
	c0.1,0.1,0.1,0.1,0,0.2l-0.2,0.2c0,0-0.1,0-0.1,0s-0.1,0-0.1,0c-0.4-0.3-0.8-0.4-1.2-0.4c-0.6,0-1.1,0.3-1.1,0.8
	c0,1.1,2.9,0.6,2.9,2.4c0,0.8-0.8,1.5-1.8,1.5c-0.7,0-1.3-0.3-1.8-0.7c0-0.1,0-0.1,0-0.2l0.2-0.2c0,0,0.1-0.1,0.1-0.1
	c0,0,0.1,0,0.1,0C208.1,125.3,208.6,125.6,209.1,125.6"/>
<rect x="51.2" y="123.5" class="st0" width="16.4" height="0.6"/>
<rect x="215" y="123.5" class="st0" width="17.2" height="0.6"/>
</svg>
