<svg xmlns="http://www.w3.org/2000/svg" viewBox="0 0 276.15 66.71"><defs><style>.cls-1{fill:#f8c110;}</style></defs><title>Fichier 2</title><g id="Calque_2" data-name="Calque 2"><g id="Calque_1-2" data-name="Calque 1"><path class="cls-1" d="M72.41,7.69v20.4H90.68v.83H72.41V52.28h-6.7V6.74h30v1Z"/><path class="cls-1" d="M124.12,28V52.28h-6.58V48.9c-1.6,1-6.58,3.91-12,3.91-8.42,0-11.44-3.91-11.44-8.24,0-9.43,14-10,23.36-18.38-.24-4.92-2-7.35-7.53-7.35-6,0-6.82,5.87-7.24,10.19H94.89c2.19-7.11,7.59-11.14,15.06-11.14C116.41,17.89,124.12,19.61,124.12,28Zm-15.54,23.3c3.09,0,6.94-2,9-3.32V27.26c-8.3,8.18-15.6,12-15.6,18C101.94,49.49,104.31,51.33,108.58,51.33Z"/><path class="cls-1" d="M147.3,17.77c5.52,0,10,3.32,12.45,7.83H153c-.47-2.44-1.72-5.87-6.81-5.87-7.77,0-9.73,9.54-9.73,14.82,0,10.67,5,16.13,11.5,16.25h.24c3.62,0,7.06-1.25,11.8-5.1l.48.59a22,22,0,0,1-14.89,6.17c-9,0-16.84-6.23-16.84-17.91C128.74,24.29,136.87,17.77,147.3,17.77Z"/><path class="cls-1" d="M182.58,17.83c6.88,0,11.92,4.8,13.82,11.2H172.26a24.75,24.75,0,0,0-.65,5.58c0,10.67,5.1,16.13,11.56,16.25h.24c3.62,0,7.12-1.25,11.86-5.1l.47.59a22,22,0,0,1-14.94,6.17c-9,0-16.9-6.23-16.9-17.91C163.9,24.35,172.14,17.83,182.58,17.83Zm-1.19,2c-5.09,0-7.7,4.1-8.89,8.42h16C188,23.94,186.91,19.78,181.39,19.78Z"/><path class="cls-1" d="M219.4,51.86c10.85,0,11-7.29,11-18.08v-27h6.76V31.47c0,15.65-3.67,21.34-17.73,21.34s-17.73-5.69-17.73-21.34V6.74h6.76v27C208.43,44.57,208.55,51.86,219.4,51.86Z"/><path class="cls-1" d="M264.05,18a8.72,8.72,0,0,1,1.25.06c7.53.94,10.85,6.76,10.85,17.19,0,11.33-4.45,17.43-13.46,17.43-5,0-8.84-2.49-12.57-9.07V66.71h-6.53V18.07h6.53V37.22C252.31,30,255.27,18,264.05,18Zm-1.78,33.68c4.92,0,6.94-5.64,6.94-16.43,0-8.89-2.91-12.33-6.88-12.39h-.06c-5.34,0-10.79,11.56-12.15,17.55v1.9C253.85,48.9,258.36,51.63,262.27,51.63Z"/><path class="cls-1" d="M23,0C17.08,0,11.51,3,7.24,8.48,2.64,14.38,0,22.71,0,31.34,0,48.61,10.29,62.67,23,62.67S45.89,48.61,45.89,31.34,35.6,0,23,0ZM2.69,41.91H43.2A34.92,34.92,0,0,1,41,48H5A34.94,34.94,0,0,1,2.69,41.91Zm18.65-2.55L1.68,25.8a35.24,35.24,0,0,1,6-15.66ZM44.22,25.79,24.56,39.36,38.27,10.14A35,35,0,0,1,44.22,25.79ZM37.38,9,23.6,38.35v-37C28.88,1.54,33.7,4.39,37.38,9ZM22.3,1.32v37L8.52,9C12.33,4.23,17.19,1.53,22.3,1.32ZM1.51,27.26,20.86,40.61H2.36A40.38,40.38,0,0,1,1.3,31.34C1.3,30,1.38,28.6,1.51,27.26Zm9.84,29.42H34.54A17.42,17.42,0,0,1,23,61.37,17.44,17.44,0,0,1,11.35,56.68Zm24.55-1.3H10A27.89,27.89,0,0,1,5.61,49.3H40.29A28.26,28.26,0,0,1,35.9,55.38Zm7.63-14.77H25L44.39,27.26c.13,1.33.2,2.69.2,4.08A40.38,40.38,0,0,1,43.53,40.61Z"/><path class="cls-1" d="M95.18,61.11A2.8,2.8,0,1,1,92.5,63.9,2.63,2.63,0,0,1,95.18,61.11Zm0,.6a2.21,2.21,0,0,0,0,4.39,2.21,2.21,0,0,0,0-4.39Z"/><path class="cls-1" d="M101.42,65.33a2.32,2.32,0,0,0,1.7.77c1,0,1.27-.52,1.27-.93,0-.65-.65-.83-1.37-1s-1.83-.47-1.83-1.53c0-.89.8-1.5,1.86-1.5a2.54,2.54,0,0,1,1.92.76l-.41.49a2.08,2.08,0,0,0-1.56-.65c-.65,0-1.11.35-1.11.86s.62.71,1.31.89c.89.24,1.89.51,1.89,1.65,0,.78-.53,1.59-2,1.59a2.7,2.7,0,0,1-2.08-.86Z"/><path class="cls-1" d="M109.81,61.79h-1.7V61.2h4.1v.59h-1.72V66.6h-.68Z"/><path class="cls-1" d="M115.53,61.2h3.54v.59H116.2v1.75H119v.6H116.2V66h2.87v.6h-3.54Zm1.56-.46,1.2-1.16h.63l-1.37,1.16Z"/><path class="cls-1" d="M125,61.11a2.8,2.8,0,1,1-2.68,2.79A2.63,2.63,0,0,1,125,61.11Zm0,.6a2.21,2.21,0,1,0,2,2.19A2,2,0,0,0,125,61.71Z"/><path class="cls-1" d="M131.2,61.2h2.17a1.63,1.63,0,1,1,0,3.25h-1.5V66.6h-.67Zm2.09.59h-1.42v2.06h1.42a1,1,0,1,0,0-2.06Z"/><path class="cls-1" d="M141.17,65.4h-2.74L138,66.6h-.75l2.18-5.4h.83l2.18,5.4h-.75Zm-2.55-.6H141l-1.16-3Z"/><path class="cls-1" d="M146.32,61.79h-1.71V61.2h4.1v.59H147V66.6h-.67Z"/><path class="cls-1" d="M155.87,64.12h-3.16V66.6H152V61.2h.68v2.32h3.16V61.2h.67v5.4h-.67Z"/><path class="cls-1" d="M160.23,61.2h3.54v.59h-2.86v1.75h2.81v.6h-2.81V66h2.86v.6h-3.54Z"/><path class="cls-1" d="M171.8,61.2h3.54v.59h-2.87v1.75h2.81v.6h-2.81V66.6h-.67Z"/><path class="cls-1" d="M181.79,65.4h-2.73l-.48,1.2h-.75L180,61.2h.84L183,66.6h-.75Zm-2.54-.6h2.34l-1.16-3Z"/><path class="cls-1" d="M185.64,63.9a2.69,2.69,0,0,1,2.75-2.79,2.41,2.41,0,0,1,2.07,1.07l-.56.31a1.85,1.85,0,0,0-1.51-.78,2.2,2.2,0,0,0,0,4.39,1.83,1.83,0,0,0,1.51-.79l.57.32a2.46,2.46,0,0,1-2.08,1.07A2.7,2.7,0,0,1,185.64,63.9Z"/><path class="cls-1" d="M193.76,61.2h.68v5.4h-.68Z"/><path class="cls-1" d="M201.53,65.4H198.8l-.48,1.2h-.75l2.17-5.4h.84l2.18,5.4H202ZM199,64.8h2.34l-1.16-3Z"/><path class="cls-1" d="M205.89,61.2h.68V66h2.51v.6h-3.19Z"/><path class="cls-1" d="M212.46,61.2h.67v5.4h-.67Z"/><path class="cls-1" d="M216.9,65.33a2.3,2.3,0,0,0,1.7.77c1,0,1.27-.52,1.27-.93,0-.65-.65-.83-1.37-1s-1.83-.47-1.83-1.53c0-.89.8-1.5,1.86-1.5a2.56,2.56,0,0,1,1.92.76l-.41.49a2.08,2.08,0,0,0-1.56-.65c-.65,0-1.11.35-1.11.86s.62.71,1.31.89c.88.24,1.89.51,1.89,1.65,0,.78-.54,1.59-2,1.59a2.7,2.7,0,0,1-2.08-.86Z"/><path class="cls-1" d="M225.29,61.79h-1.71V61.2h4.1v.59H226V66.6h-.68Z"/><path class="cls-1" d="M231,61.2h3.54v.59h-2.87v1.75h2.81v.6h-2.81V66h2.87v.6H231Z"/></g></g></svg>