<svg xmlns="http://www.w3.org/2000/svg" viewBox="0 0 38.28 65.98"><defs><style>.cls-1{fill:#fea31e;}</style></defs><title>Fichier 1</title><g id="Calque_2" data-name="Calque 2"><g id="Calque_1-2" data-name="Calque 1"><path class="cls-1" d="M21.79,54.85c.28-.77.58-1.6.93-2.49a72,72,0,0,1,5.43-11l7.58-12.68a19.13,19.13,0,1,0-33.18,0l7.58,12.63a72.91,72.91,0,0,1,5.42,11c.35.89.65,1.72.93,2.49C9,55.16,2.16,57.05,2.16,60.36c0,3.69,8.54,5.62,17,5.62s17-1.93,17-5.62C36.11,57.1,29.27,55.21,21.79,54.85ZM9.79,19a9.33,9.33,0,1,1,9.33,9.32h0A9.34,9.34,0,0,1,9.81,19ZM19.14,64c-9.69,0-15-2.39-15-3.62s4.58-3.3,13-3.59a24.56,24.56,0,0,1,1,3.57,1,1,0,0,0,2,0,22.27,22.27,0,0,1,1-3.57c8.43.29,13,2.44,13,3.59S28.82,64,19.14,64Z"/></g></g></svg>