<?xml version="1.0" encoding="utf-8"?>
<!-- Generator: Adobe Illustrator 23.0.6, SVG Export Plug-In . SVG Version: 6.00 Build 0)  -->
<svg version="1.1" id="Calque_1" xmlns="http://www.w3.org/2000/svg" xmlns:xlink="http://www.w3.org/1999/xlink" x="0px" y="0px"
	 viewBox="0 0 38.3 66" style="enable-background:new 0 0 38.3 66;" xml:space="preserve">
<style type="text/css">
	.st0{fill:#F8B472;}
</style>
<title>Fichier 1</title>
<g>
	<g id="Calque_1-2">
		<path class="st0" d="M21.8,54.8c0.3-0.8,0.6-1.6,0.9-2.5c1.5-3.8,3.3-7.5,5.4-11l7.6-12.7c5.3-9.2,2.1-20.9-7.1-26.1
			S7.8,0.5,2.6,9.6c-3.4,5.9-3.4,13.2,0,19.1l7.6,12.6c2.1,3.5,3.9,7.2,5.4,11c0.4,0.9,0.6,1.7,0.9,2.5C9,55.2,2.2,57,2.2,60.4
			c0,3.7,8.5,5.6,17,5.6s17-1.9,17-5.6C36.1,57.1,29.3,55.2,21.8,54.8z M9.8,19c0-5.2,4.2-9.3,9.3-9.3s9.3,4.2,9.3,9.3
			c0,5.2-4.2,9.3-9.3,9.3c0,0,0,0,0,0l0,0C14,28.3,9.8,24.1,9.8,19L9.8,19z M19.1,64c-9.7,0-15-2.4-15-3.6s4.6-3.3,13-3.6
			c0.4,1.2,0.8,2.4,1,3.6c0,0.6,0.4,1,1,1s1-0.4,1-1c0.2-1.2,0.6-2.4,1-3.6c8.4,0.3,13,2.4,13,3.6S28.8,64,19.1,64z"/>
	</g>
</g>
</svg>
