<svg xmlns="http://www.w3.org/2000/svg" viewBox="0 0 64.31 80"><defs><style>.cls-1{fill:#fea31e;}</style></defs><title>Fichier 2</title><g id="Calque_2" data-name="Calque 2"><g id="Calque_1-2" data-name="Calque 1"><path class="cls-1" d="M23.31,27h-9a1,1,0,0,0-1,1v9a1,1,0,0,0,1,1h9a1,1,0,0,0,1-1V28A1,1,0,0,0,23.31,27Zm-1,9h-7V29h7Z"/><path class="cls-1" d="M23.31,42h-9a1,1,0,0,0-1,1v9a1,1,0,0,0,1,1h9a1,1,0,0,0,1-1V43A1,1,0,0,0,23.31,42Zm-1,9h-7V44h7Z"/><path class="cls-1" d="M52.31,14h-23a1,1,0,0,0,0,2h23a1,1,0,0,0,0-2Z"/><path class="cls-1" d="M43.31,18h-14a1,1,0,0,0,0,2h14a1,1,0,0,0,0-2Z"/><path class="cls-1" d="M52.31,29h-23a1,1,0,0,0,0,2h23a1,1,0,0,0,0-2Z"/><path class="cls-1" d="M43.31,33h-14a1,1,0,0,0,0,2h14a1,1,0,0,0,0-2Z"/><path class="cls-1" d="M52.31,45h-23a1,1,0,0,0,0,2h23a1,1,0,0,0,0-2Z"/><path class="cls-1" d="M43.31,49h-14a1,1,0,0,0,0,2h14a1,1,0,0,0,0-2Z"/><path class="cls-1" d="M52.31,60h-23a1,1,0,0,0,0,2h23a1,1,0,0,0,0-2Z"/><path class="cls-1" d="M43.31,64h-14a1,1,0,0,0,0,2h14a1,1,0,0,0,0-2Z"/><path class="cls-1" d="M58.72,0H7.9A5.61,5.61,0,0,0,2.31,5.59V9.52L.47,10.67a1,1,0,1,0,1.06,1.7h0l.79-.49v9.64L.48,22.67a1,1,0,0,0,1.06,1.7h0l.79-.49v9.64L.49,34.67a1,1,0,1,0,1.06,1.7l.79-.49v9.64L.5,46.67a1,1,0,1,0,1.06,1.7l.79-.49v9.64L.51,58.67a1,1,0,1,0,1.06,1.7l.79-.49v9.64L.52,70.67a1,1,0,0,0,1.06,1.7l.79-.49v2.53A5.61,5.61,0,0,0,7.9,80H58.72a5.6,5.6,0,0,0,5.59-5.59V5.59A5.6,5.6,0,0,0,58.72,0Zm3.59,74.41A3.6,3.6,0,0,1,58.72,78H7.9a3.61,3.61,0,0,1-3.59-3.59V70.63L6.4,69.32a1,1,0,0,0-1.09-1.69l-1,.65V58.63L6.4,57.32a1,1,0,1,0-1.09-1.69l-1,.65V46.63L6.4,45.32a1,1,0,1,0-1.09-1.69l-1,.65V34.63L6.4,33.32a1,1,0,0,0-1.09-1.69h0l-1,.65V22.63L6.4,21.32a1,1,0,0,0-1.09-1.69h0l-1,.65V10.63L6.4,9.32A1,1,0,0,0,5.31,7.63l-1,.65V5.59A3.61,3.61,0,0,1,7.9,2H58.72a3.6,3.6,0,0,1,3.59,3.59Z"/><path class="cls-1" d="M23.31,12h-9a1,1,0,0,0-1,1v9a1,1,0,0,0,1,1h9a1,1,0,0,0,1-1V13A1,1,0,0,0,23.31,12Zm-8,6.54h0L17.15,21H15.31Zm7,2.46H18.85l2.62-5a1,1,0,0,0-1.69-1.07l0,.07-1.89,3.6-.93-1.25a1,1,0,0,0-1.4-.2h0a1.15,1.15,0,0,0-.21.23V14h7Z"/><path class="cls-1" d="M23.31,57h-9a1,1,0,0,0-1,1v9a1,1,0,0,0,1,1h9a1,1,0,0,0,1-1V58A1,1,0,0,0,23.31,57Zm-1,9h-7V59h7Z"/></g></g></svg>