<?xml version="1.0" encoding="utf-8"?>
<!-- Generator: Adobe Illustrator 23.0.6, SVG Export Plug-In . SVG Version: 6.00 Build 0)  -->
<svg version="1.1" id="Calque_1" xmlns="http://www.w3.org/2000/svg" xmlns:xlink="http://www.w3.org/1999/xlink" x="0px" y="0px"
	 viewBox="0 0 64.3 80" style="enable-background:new 0 0 64.3 80;" xml:space="preserve">
<style type="text/css">
	.st0{fill:#F8B472;}
</style>
<title>Fichier 2</title>
<g>
	<g id="Calque_1-2">
		<path class="st0" d="M23.3,27h-9c-0.6,0-1,0.4-1,1v9c0,0.6,0.4,1,1,1h9c0.6,0,1-0.4,1-1v-9C24.3,27.4,23.9,27,23.3,27z M22.3,36
			h-7v-7h7V36z"/>
		<path class="st0" d="M23.3,42h-9c-0.6,0-1,0.4-1,1v9c0,0.6,0.4,1,1,1h9c0.6,0,1-0.4,1-1v-9C24.3,42.4,23.9,42,23.3,42z M22.3,51
			h-7v-7h7V51z"/>
		<path class="st0" d="M52.3,14h-23c-0.6,0-1,0.4-1,1s0.4,1,1,1h23c0.6,0,1-0.4,1-1S52.9,14,52.3,14z"/>
		<path class="st0" d="M43.3,18h-14c-0.6,0-1,0.4-1,1s0.4,1,1,1h14c0.6,0,1-0.4,1-1S43.9,18,43.3,18z"/>
		<path class="st0" d="M52.3,29h-23c-0.6,0-1,0.4-1,1s0.4,1,1,1h23c0.6,0,1-0.4,1-1S52.9,29,52.3,29z"/>
		<path class="st0" d="M43.3,33h-14c-0.6,0-1,0.4-1,1s0.4,1,1,1h14c0.6,0,1-0.4,1-1S43.9,33,43.3,33z"/>
		<path class="st0" d="M52.3,45h-23c-0.6,0-1,0.4-1,1s0.4,1,1,1h23c0.6,0,1-0.4,1-1S52.9,45,52.3,45z"/>
		<path class="st0" d="M43.3,49h-14c-0.6,0-1,0.4-1,1s0.4,1,1,1h14c0.6,0,1-0.4,1-1S43.9,49,43.3,49z"/>
		<path class="st0" d="M52.3,60h-23c-0.6,0-1,0.4-1,1s0.4,1,1,1h23c0.6,0,1-0.4,1-1S52.9,60,52.3,60z"/>
		<path class="st0" d="M43.3,64h-14c-0.6,0-1,0.4-1,1s0.4,1,1,1h14c0.6,0,1-0.4,1-1S43.9,64,43.3,64z"/>
		<path class="st0" d="M58.7,0H7.9C4.8,0,2.3,2.5,2.3,5.6v3.9l-1.8,1.1C0,11-0.1,11.6,0.2,12c0.3,0.5,0.9,0.6,1.4,0.3l0,0l0.8-0.5
			v9.6l-1.8,1.1C0,23-0.1,23.6,0.2,24s0.9,0.6,1.4,0.3l0,0l0,0l0.8-0.5v9.6l-1.8,1.1C0,35-0.1,35.6,0.2,36c0.3,0.5,0.9,0.6,1.4,0.3
			l0.8-0.5v9.6l-1.8,1.2C0,47-0.1,47.6,0.2,48c0.3,0.5,0.9,0.6,1.4,0.3l0.8-0.5v9.6l-1.8,1.2C0,59-0.1,59.6,0.2,60
			c0.3,0.5,0.9,0.6,1.4,0.3l0,0l0.8-0.5v9.6l-1.8,1.2C0.1,71-0.1,71.6,0.2,72c0.3,0.5,0.9,0.6,1.4,0.3l0.8-0.5v2.5
			c0,3.1,2.5,5.5,5.5,5.6h50.8c3.1,0,5.6-2.5,5.6-5.6V5.6C64.3,2.5,61.8,0,58.7,0z M62.3,74.4c0,2-1.6,3.6-3.6,3.6H7.9
			c-2,0-3.6-1.6-3.6-3.6v-3.8l2.1-1.3C6.9,69,7,68.4,6.7,67.9s-0.9-0.6-1.4-0.3l0,0l-1,0.7v-9.6l2.1-1.3C6.9,57,7,56.4,6.7,55.9
			s-0.9-0.6-1.4-0.3l0,0l-1,0.7v-9.7l2.1-1.3C6.9,45,7,44.4,6.7,43.9s-0.9-0.6-1.4-0.3l-1,0.7v-9.7l2.1-1.3C6.9,33,7,32.4,6.7,31.9
			s-0.9-0.6-1.4-0.3l0,0l0,0l-1,0.6v-9.6l2.1-1.3C6.9,21,7,20.4,6.7,19.9c-0.3-0.5-0.9-0.6-1.4-0.3l0,0l-1,0.6v-9.6l2.1-1.3
			C6.9,9,7,8.4,6.7,7.9C6.4,7.5,5.8,7.3,5.3,7.6l-1,0.6V5.6c0-2,1.6-3.6,3.6-3.6h50.8c2,0,3.6,1.6,3.6,3.6V74.4z"/>
		<path class="st0" d="M23.3,12h-9c-0.6,0-1,0.4-1,1v9c0,0.6,0.4,1,1,1h9c0.6,0,1-0.4,1-1v-9C24.3,12.4,23.9,12,23.3,12z M15.3,18.5
			L15.3,18.5l1.8,2.5h-1.8L15.3,18.5z M22.3,21h-3.5l2.6-5c0.3-0.5,0.2-1.1-0.3-1.4c-0.5-0.3-1.1-0.2-1.4,0.3V15l-1.9,3.6L17,17.3
			c-0.3-0.4-1-0.5-1.4-0.2l0,0c-0.1,0.1-0.2,0.1-0.2,0.2V14h7L22.3,21z"/>
		<path class="st0" d="M23.3,57h-9c-0.6,0-1,0.4-1,1v9c0,0.6,0.4,1,1,1h9c0.6,0,1-0.4,1-1v-9C24.3,57.4,23.9,57,23.3,57z M22.3,66
			h-7v-7h7V66z"/>
	</g>
</g>
</svg>
