<?xml version="1.0" encoding="utf-8"?>
<!-- Generator: Adobe Illustrator 23.0.6, SVG Export Plug-In . SVG Version: 6.00 Build 0)  -->
<svg version="1.1" id="Calque_1" xmlns="http://www.w3.org/2000/svg" xmlns:xlink="http://www.w3.org/1999/xlink" x="0px" y="0px"
	 viewBox="0 0 54 54" style="enable-background:new 0 0 54 54;" xml:space="preserve">
<style type="text/css">
	.st0{fill:none;}
	.st1{fill:none;stroke:#F8B472;stroke-miterlimit:10;}
	.st2{fill:#F8B472;}
</style>
<title>Fichier 3</title>
<g>
	<g id="Calque_1-2">
		<path class="st0" d="M44.6,12.9c0.5-0.5,0.7-1.1,0.7-1.8c0-0.7-0.3-1.3-0.7-1.8c-0.5-0.5-1.1-0.7-1.8-0.7c-0.7,0-1.3,0.3-1.8,0.7
			c-0.5,0.5-0.7,1.1-0.7,1.8c0,0.7,0.3,1.3,0.7,1.8C42,13.8,43.6,13.8,44.6,12.9z"/>
		<path class="st1" d="M52,21.1L51,3L32.9,2L2.8,32.1l19.1,19.1L52,21.1z M39.7,7.9c0.8-0.9,2-1.3,3.2-1.3c1.2,0,2.3,0.5,3.2,1.3
			c0.9,0.8,1.3,2,1.3,3.2c0,1.2-0.5,2.3-1.3,3.2c-0.8,0.9-2,1.3-3.2,1.3c-1.2,0-2.3-0.5-3.2-1.3c-0.9-0.8-1.3-2-1.3-3.2
			C38.4,9.9,38.8,8.7,39.7,7.9z"/>
		<path class="st2" d="M54,21.9L52.9,1.1L32.1,0L0,32.1L21.9,54L54,21.9z M32.9,2L51,3l1,18.1L21.9,51.2L2.8,32.1L32.9,2z"/>
		<path class="st2" d="M42.9,15.6c1.2,0,2.3-0.5,3.2-1.3c0.9-0.8,1.3-2,1.3-3.2c0-1.2-0.5-2.3-1.3-3.2c-0.8-0.9-2-1.3-3.2-1.3
			c-1.2,0-2.3,0.5-3.2,1.3c-0.9,0.8-1.3,2-1.3,3.2c0,1.2,0.5,2.3,1.3,3.2C40.5,15.2,41.7,15.6,42.9,15.6z M41.1,9.4
			c0.5-0.5,1.1-0.7,1.8-0.7c0.7,0,1.3,0.3,1.8,0.7c0.5,0.5,0.7,1.1,0.7,1.8c0,0.7-0.3,1.3-0.7,1.8c-1,0.9-2.5,0.9-3.5,0
			c-0.5-0.5-0.7-1.1-0.7-1.8C40.4,10.5,40.6,9.9,41.1,9.4z"/>
	</g>
</g>
</svg>
