<svg xmlns="http://www.w3.org/2000/svg" viewBox="0 0 54 54"><defs><style>.cls-1,.cls-2{fill:none;}.cls-2{stroke:#fea31e;stroke-miterlimit:10;}.cls-3{fill:#fea31e;}</style></defs><title>Fichier 3</title><g id="Calque_2" data-name="Calque 2"><g id="Calque_1-2" data-name="Calque 1"><path class="cls-1" d="M44.6,12.9a2.41,2.41,0,0,0,.7-1.8,2.87,2.87,0,0,0-.7-1.8,2.27,2.27,0,0,0-1.8-.7,2.87,2.87,0,0,0-1.8.7,2.41,2.41,0,0,0-.7,1.8,2.87,2.87,0,0,0,.7,1.8A2.73,2.73,0,0,0,44.6,12.9Z"/><path class="cls-2" d="M52,21.1,51,3,32.9,2,2.8,32.1,21.9,51.2ZM39.7,7.9a4.22,4.22,0,0,1,3.2-1.3,4.82,4.82,0,0,1,3.2,1.3,4.22,4.22,0,0,1,1.3,3.2,4.82,4.82,0,0,1-1.3,3.2,4.22,4.22,0,0,1-3.2,1.3,4.82,4.82,0,0,1-3.2-1.3,4.22,4.22,0,0,1-1.3-3.2A4.38,4.38,0,0,1,39.7,7.9Z"/><path class="cls-3" d="M54,21.9,52.9,1.1,32.1,0,0,32.1,21.9,54ZM32.9,2,51,3l1,18.1L21.9,51.2,2.8,32.1Z"/><path class="cls-3" d="M42.9,15.6a4.82,4.82,0,0,0,3.2-1.3,4.22,4.22,0,0,0,1.3-3.2,4.82,4.82,0,0,0-1.3-3.2,4.22,4.22,0,0,0-3.2-1.3,4.82,4.82,0,0,0-3.2,1.3,4.22,4.22,0,0,0-1.3,3.2,4.82,4.82,0,0,0,1.3,3.2A4.22,4.22,0,0,0,42.9,15.6ZM41.1,9.4a2.41,2.41,0,0,1,1.8-.7,2.87,2.87,0,0,1,1.8.7,2.27,2.27,0,0,1,.7,1.8,2.87,2.87,0,0,1-.7,1.8,2.61,2.61,0,0,1-3.5,0,2.41,2.41,0,0,1-.7-1.8A2.21,2.21,0,0,1,41.1,9.4Z"/></g></g></svg>